<svg fill="none" height="28" viewBox="0 0 28 28" width="28" xmlns="http://www.w3.org/2000/svg"><circle cx="14" cy="14" fill="#0384fb" r="14"/><path d="m14.6183 21h-3.1379v-.2255c0-2.3488.0014-4.6973.0041-7.0455 0-.1722-.0401-.2269-.2188-.2194-.3563.0152-.714.0045-1.0714.0045h-.1943v-2.6417h1.4804c0-.084 0-.1501 0-.2159.0034-.5784-.0097-1.15749.0152-1.73521.0346-.77052.2701-1.47287.8138-2.04611.4674-.49302 1.0606-.77224 1.7251-.81286.9637-.05888 1.9316-.04511 2.9122-.06232v2.59147h-.1731c-.4782 0-.9564 0-1.4343 0-.472 0-.7189.2379-.7244.70441-.0062.51644 0 1.02942 0 1.56622h2.3876c-.0921.8927-.1815 1.7617-.2729 2.6486h-2.1088z" fill="#fff"/></svg>