<svg width="28" height="28" viewBox="0 0 28 28" fill="none" xmlns="http://www.w3.org/2000/svg">
<circle cx="14" cy="14" r="14" fill="#0384FB"/>
<path d="M20.9968 20V19.9995H21V15.1895C21 12.8364 20.5005 11.0238 17.7883 11.0238C16.4844 11.0238 15.6094 11.7495 15.2522 12.4375H15.2145V11.2435H12.6429V19.9995H15.3206V15.6638C15.3206 14.5223 15.534 13.4184 16.9278 13.4184C18.3012 13.4184 18.3217 14.7212 18.3217 15.737V20H20.9968Z" fill="white"/>
<path d="M8.30951 11.3334H10.7857V20H8.30951V11.3334Z" fill="white"/>
<path d="M9.54762 7C8.69326 7 8 7.69003 8 8.5404C8 9.39078 8.69326 10.0952 9.54762 10.0952C10.402 10.0952 11.0952 9.39078 11.0952 8.5404C11.0947 7.69003 10.4014 7 9.54762 7Z" fill="white"/>
</svg>
