<svg width="28" height="28" viewBox="0 0 28 28" fill="none" xmlns="http://www.w3.org/2000/svg">
<circle cx="14" cy="14" r="14" fill="#0384FB"/>
<path d="M21 9.42611C20.4794 9.66796 19.9246 9.82827 19.3462 9.90611C19.9412 9.52989 20.3954 8.93869 20.6089 8.2261C20.0541 8.57637 19.4416 8.82379 18.7889 8.96186C18.2621 8.36788 17.5114 8 16.6924 8C15.1034 8 13.8241 9.36588 13.8241 11.0403C13.8241 11.2813 13.8434 11.5129 13.8906 11.7335C11.5045 11.6102 9.39313 10.3991 7.97475 8.55413C7.72712 9.00912 7.58188 9.52989 7.58188 10.0905C7.58188 11.1432 8.09375 12.0763 8.85675 12.6165C8.39562 12.6073 7.94325 12.4655 7.56 12.2422C7.56 12.2514 7.56 12.2635 7.56 12.2755C7.56 13.7526 8.55487 14.9795 9.8595 15.2621C9.62587 15.3298 9.37125 15.3622 9.107 15.3622C8.92325 15.3622 8.73775 15.3511 8.56362 15.3103C8.9355 16.514 9.99075 17.399 11.2455 17.4277C10.269 18.2366 9.02912 18.7241 7.68688 18.7241C7.4515 18.7241 7.22575 18.7129 7 18.6824C8.27137 19.5506 9.77813 20.0464 11.403 20.0464C16.6845 20.0464 19.572 15.4132 19.572 11.3971C19.572 11.2627 19.5676 11.133 19.5615 11.0042C20.1311 10.5761 20.6097 10.0414 21 9.42611Z" fill="white"/>
</svg>
